<svg xmlns="http://www.w3.org/2000/svg" viewBox="0 0 1418.65 404.37"><defs><style>.cls-1,.cls-3{fill:#1e1e1e;}.cls-2,.cls-4{fill:#a30841;}.cls-3,.cls-5,.cls-6{stroke:#1e1e1e;}.cls-3,.cls-4,.cls-5,.cls-6,.cls-7,.cls-8{stroke-miterlimit:10;}.cls-3,.cls-4{stroke-width:3px;}.cls-4,.cls-7,.cls-8{stroke:#a30841;}.cls-5,.cls-6,.cls-7,.cls-8{fill:none;}.cls-5{stroke-linecap:round;stroke-width:9px;}.cls-6{stroke-width:7px;}.cls-7{stroke-width:5px;}.cls-8{stroke-width:15px;}</style></defs><title>Plan de travail 1</title><g id="triangle"><path class="cls-1" d="M428,237.69V132.59h5.92v99.19h40.72v5.91Z"/><path class="cls-1" d="M518.41,167.34A36.11,36.11,0,0,1,543.93,229a36.08,36.08,0,0,1-51-51A34.77,34.77,0,0,1,518.41,167.34Zm-21.08,15a29.83,29.83,0,1,0,21.08-8.73A28.74,28.74,0,0,0,497.33,182.38Z"/><path class="cls-1" d="M596.85,238.61q-12.09,0-19.25-7.16a25.16,25.16,0,0,1-7.36-18.06v-40.2h5.91v39.67a18.79,18.79,0,0,0,6,14,20,20,0,0,0,14.65,5.84,19.49,19.49,0,0,0,14.09-5.81,18.93,18.93,0,0,0,6-14V173.19h5.91v40.2a25.16,25.16,0,0,1-7.36,18.06Q608.22,238.62,596.85,238.61Z"/><path class="cls-2" d="M650.88,152a5.59,5.59,0,0,1,1.74,4.14,5.67,5.67,0,0,1-1.74,4.21,6,6,0,0,1-8.35,0,5.67,5.67,0,0,1-1.74-4.21,5.59,5.59,0,0,1,1.74-4.14,6,6,0,0,1,8.35,0Z"/><rect class="cls-1" x="643.75" y="173.19" width="5.91" height="64.51"/><path class="cls-1" d="M688.42,204.52q-7.56-4.07-10.45-7a14.88,14.88,0,0,1-4.53-10.91,15,15,0,0,1,4.53-11,14.84,14.84,0,0,1,10.91-4.57,14.43,14.43,0,0,1,10.64,4.21,13.07,13.07,0,0,1,4.07,9.39V185l-5.12,2q-.66-5-3.12-7.49a8.66,8.66,0,0,0-6.47-2.5,9.57,9.57,0,0,0-6.77,16.36,46.81,46.81,0,0,0,7,5q8.41,4.6,12,8.15A19.14,19.14,0,1,1,674,233.65q-5.6-5.61-5.59-12.31l5.85-1.51a13,13,0,0,0,3.91,9.65,13.27,13.27,0,0,0,18.75-18.78A56.78,56.78,0,0,0,688.42,204.52Z"/><path class="cls-1" d="M755.49,167.34A36.12,36.12,0,0,1,781,229a36.08,36.08,0,1,1-51-51A34.73,34.73,0,0,1,755.49,167.34Zm-21.09,15a29.83,29.83,0,1,0,21.09-8.73A28.78,28.78,0,0,0,734.4,182.38Z"/><path class="cls-1" d="M813.23,187.57v50.12h-5.91v-64.5h5.91v4.14a25.84,25.84,0,0,1,18.79-8q11.43,0,18.59,7.16A25.2,25.2,0,0,1,858,194.54v43.15h-5.91V195.06a18.93,18.93,0,0,0-5.94-14,20.06,20.06,0,0,0-28.15-.09A22,22,0,0,0,813.23,187.57Z"/><path class="cls-3" d="M910.48,190.1v46.06H904.7V133.37h5.78v50.95h43V133.37h5.78V236.16h-5.78V190.1Z"/><path class="cls-4" d="M986.84,141.54a5.43,5.43,0,0,1,1.7,4.05,5.52,5.52,0,0,1-1.7,4.11,5.82,5.82,0,0,1-8.16,0,5.55,5.55,0,0,1-1.7-4.11,5.47,5.47,0,0,1,1.7-4.05,5.82,5.82,0,0,1,8.16,0Z"/><rect class="cls-3" x="979.87" y="173.07" width="5.78" height="63.09"/><path class="cls-3" d="M1006.21,173.07H1012v8.87a36.62,36.62,0,0,1,3.66-4.24,35.29,35.29,0,0,1,49.89,49.92,35.26,35.26,0,0,1-49.89,0,37.47,37.47,0,0,1-3.66-4.24v36.88h-5.79Zm5.79,23.58v12.08a29,29,0,1,0,0-12.08Z"/><path class="cls-3" d="M1103.94,224.34a27.76,27.76,0,0,0,19.4,7.45,28.07,28.07,0,0,0,20.62-8.54c.73-.73,1.42-1.48,2.06-2.25l6.1,2.19a35.45,35.45,0,0,1-3.79,4.43,35.3,35.3,0,1,1-49.92-49.92,35.42,35.42,0,0,1,46.84-2.83c1,.86,2,1.8,3.08,2.83.39.38.75.77,1.09,1.15l-4.37,4.37Zm36.87-45A29.15,29.15,0,0,0,1100,220.1Z"/><path class="cls-3" d="M1235.65,236.16h-5.79V223.31a42.36,42.36,0,0,1-3.66,4.31,35.3,35.3,0,1,1-49.92-49.92,35.27,35.27,0,0,1,49.92,0,42.26,42.26,0,0,1,3.66,4.3v-8.93h5.79Zm-5.79-27.75V197a28.87,28.87,0,1,0,0,11.44Z"/><path class="cls-3" d="M1280.94,237.06q-11.82,0-18.82-7a24.63,24.63,0,0,1-7.2-17.67V173.07h5.78v38.81a18.31,18.31,0,0,0,5.85,13.68,19.55,19.55,0,0,0,14.33,5.72,19,19,0,0,0,13.78-5.69,18.46,18.46,0,0,0,5.81-13.71V173.07h5.79v39.32a24.63,24.63,0,0,1-7.2,17.67Q1292.06,237.07,1280.94,237.06Z"/><path class="cls-5" d="M329.08,80.66a159.37,159.37,0,1,0,7.22,236.52"/><circle class="cls-6" cx="227.57" cy="203.14" r="128.69" transform="translate(-54.7 87.47) rotate(-19.47)"/><line class="cls-7" x1="178.58" y1="202.2" x2="411.42" y2="202.2"/><line class="cls-7" x1="1319.67" y1="202.27" x2="1352.07" y2="202.27"/><path class="cls-2" d="M228.65,212.94a13.86,13.86,0,1,0-19.59,0A13.85,13.85,0,0,0,228.65,212.94Z"/><polygon class="cls-8" points="184.39 131.64 246.6 166.88 308.81 202.13 247.19 238.38 185.56 274.64 184.97 203.14 184.39 131.64"/></g></svg>